<svg xmlns="http://www.w3.org/2000/svg" width="147" height="49"><g fill="none" fill-rule="evenodd"><path fill="#0060A9" d="M5.618 49A5.618 5.618 0 0 1 0 43.382V5.618l.004-.22A5.618 5.618 0 0 1 5.618 0h135.764A5.618 5.618 0 0 1 147 5.618v37.764A5.618 5.618 0 0 1 141.382 49z"/><path fill="#FFF200" fill-rule="nonzero" d="M67.125 19.542h.347c2.455.018 6.478.352 7.426 3.718l.03.113v7.534l.048 2.715H70.43a5.09 5.09 0 0 1-.428-1.647 8.398 8.398 0 0 1-5.812 2.042c-2.614 0-5.288-1.205-5.288-4.083 0-2.68 2.1-4.067 4.947-4.43l.116-.014 4.43-.511c.694-.09 1.477-.343 1.477-1.082 0-1.538-2.021-1.62-3.198-1.62-2.066 0-2.427 1.072-2.572 1.876l-.042.248h-4.607c.519-4.218 4.146-4.847 7.672-4.86zm42.573-.184c4.485 0 8.718 2.3 8.718 7.316 0 5.015-4.233 7.316-8.718 7.316-4.484 0-8.724-2.294-8.724-7.316 0-5.023 4.24-7.316 8.724-7.316zm-66.946-4.69 9.684 18.961h-6.125l-1.898-3.872h-10.44l-1.749 3.872h-5.383l9.228-18.96h6.683zm15.217.191v18.77h-4.723V14.86h4.723zm35.685 5.17.12.003c3.304 0 6.45 1.178 6.518 4.166l.001.1v9.331h-4.498v-7.962c.109-1.613-.572-2.294-2.26-2.362-2.21-.054-2.654.79-2.667 2.386v7.938H85.79v-8.112c-.009-1.097-.141-2.174-2.123-2.212-2.08-.04-2.773.788-2.796 2.258v8.066h-4.887V20.202h4.696v2.041h.06c.58-.918.681-2.211 3.703-2.211 2.477 0 3.607.728 4.764 2.218a5.526 5.526 0 0 1 4.447-2.22zM69.682 26.83c-.456.286-1.212.524-3.104.756l-.27.04c-1.577.238-2.833.62-2.833 2.056 0 1.28 1.239 1.674 2.123 1.674 2.01 0 4.019-.989 4.082-2.642l.002-.08V26.83zm40.016-4.39c-3.363 0-4 2.401-4.015 4.172v.062c0 1.776.626 4.233 4.015 4.233 3.39 0 4.016-2.457 4.016-4.233l-.001-.124c-.03-1.764-.71-4.11-4.015-4.11zm-70.594-3.729-3.32 7.425h6.846l-3.526-7.425zm80.488-1.312c.353.353.551.83.554 1.327l-.001.087a1.974 1.974 0 1 1-2.047-1.965l.08-.001a1.892 1.892 0 0 1 1.414.552zm-1.863 0c-.58.23-.96.79-.96 1.414a1.43 1.43 0 0 0 1.331 1.508l.078.003a1.518 1.518 0 1 0-.449-2.925zm.463.353c.544 0 .85.177.85.64h.014a.504.504 0 0 1-.51.55l.544.92h-.538l-.49-.885h-.21v.884h-.45v-2.11h.79zm-.02.354h-.32v.503h.467c.158-.003.254-.031.254-.265 0-.218-.232-.238-.402-.238z"/><path fill="#FFF200" fill-rule="nonzero" d="M140.134 1.248a5.618 5.618 0 0 1 5.618 5.618v35.268a5.618 5.618 0 0 1-5.618 5.618H6.866a5.618 5.618 0 0 1-5.618-5.618V6.866a5.618 5.618 0 0 1 5.618-5.618h133.268zm0 1.56H6.866A4.06 4.06 0 0 0 2.81 6.77v35.364A4.057 4.057 0 0 0 6.77 46.19l.096.001h133.268a4.06 4.06 0 0 0 4.057-3.961V6.866a4.057 4.057 0 0 0-3.961-4.056l-.096-.001z"/></g></svg>