<svg xmlns="http://www.w3.org/2000/svg" width="147" height="49"><g fill="none" fill-rule="evenodd"><path fill="#FFF" d="M0 0h147v49H0z"/><path fill="#D4002A" fill-rule="nonzero" d="M115.543 16.627c-2.037-1.826-3.91-2.434-5.9-2.434-1.99 0-4.495.679-4.495 3.23 0 2.13 1.897 2.856 4.94 3.792 4.355 1.405 9.974 3.23 9.974 9.597 0 7.374-5.947 10.698-12.268 10.698-4.59 0-9.201-1.686-12.01-4.612l4.752-4.869c1.896 2.037 4.73 3.114 7.258 3.114 2.364 0 4.448-.913 4.448-3.488 0-2.458-2.458-3.254-6.672-4.635-4.074-1.31-8.195-3.347-8.195-9.152 0-7.116 6.439-10.065 12.409-10.065 3.629 0 7.703 1.357 10.512 3.932l-4.753 4.892zM39.71 28.191h-8.054l4.074-11.002 3.98 11.002zm13.228 12.5L39.827 8.62h-7.726l-13.603 32.07h8.57l2.34-6.297H41.84l2.482 6.296h8.616zM80.471 8.62h-8.569L64.48 31.796 56.918 8.622h-8.71L60.36 40.69h7.75L80.47 8.622zm3.114 32.07h7.797V8.62h-7.797v32.07zm39.895-29.354c0 1.522 1.218 2.715 2.74 2.715 1.521 0 2.762-1.193 2.762-2.715 0-1.521-1.217-2.739-2.762-2.739-1.522.024-2.74 1.241-2.74 2.74zm.422 0a2.303 2.303 0 0 1 2.294-2.317 2.308 2.308 0 0 1 2.318 2.317 2.323 2.323 0 0 1-2.318 2.317c-1.264 0-2.294-1.053-2.294-2.317zm1.24 1.545h.562v-1.287h.398l.703 1.287h.679l-.82-1.358c.445-.093.703-.398.703-.842 0-.656-.562-.913-1.17-.913h-1.078v3.113h.024zm.562-1.732v-.89h.492c.281 0 .609.094.609.422 0 .374-.351.468-.68.468h-.42z"/></g></svg>