<svg xmlns="http://www.w3.org/2000/svg" width="109" height="39"><g fill="none" fill-rule="evenodd"><path fill="#FFD50D" d="M1.885 33.08.662 38.382h100.923l1.134-5.305z"/><g fill="#000"><path d="M107.125 26.592h-.018c-.99.044-1.83.734-2.059 1.69-.026.117-.04.236-.04.355a1.298 1.298 0 0 0 1.372 1.32 2.228 2.228 0 0 0 2.062-1.693 1.73 1.73 0 0 0 .036-.348 1.289 1.289 0 0 0-1.353-1.324m1.09 1.62a1.993 1.993 0 0 1-1.832 1.515 1.06 1.06 0 0 1-1.14-1.09c.002-.102.014-.204.038-.303a1.987 1.987 0 0 1 1.832-1.514 1.066 1.066 0 0 1 1.155 1.093 1.398 1.398 0 0 1-.037.303"/><path d="M106.988 27.462h-.727l-.345 1.614h.36l.11-.52h.284l.233.52h.424l-.275-.578a.662.662 0 0 0 .458-.503c.07-.336-.134-.533-.522-.533m.153.554a.305.305 0 0 1-.33.233h-.357l.1-.472h.349c.18 0 .271.081.238.239m-29.843-3.847c-.916-.963-.363-2.88.098-5.043l1.576-7.35h6.481l1.173-5.477h-6.484L81.293.847h-6.109l-4.004 18.78c-.611 2.804-.831 5 .397 7.362 1.142 2.2 5.043 4.295 9.982 2.971l1.09-5.076c-3.36.409-4.691-.02-5.351-.718"/></g><path fill="#000" d="M25.747.93 22.82 14.451H12.059L14.978.93h-6.19L2.535 29.956h6.183l2.158-10.058h10.767l-2.168 10.058h6.134L31.872.93zM60.566 8.401c-2.154 1.768-3.384 4.08-4.169 7.734l-2.99 13.82h6.153l2.482-11.462c.588-2.681 1.037-4.355 2.061-5.389 1.41-1.415 3.455-1.493 5.907-1.296l1.187-5.456c-4.328-1.078-8.106-.02-10.631 2.053M89.35 6.236l-1.164 5.487h11.016L85.427 24.681l-1.122 5.275h18.987l1.174-5.482h-11.08l13.845-13.018 1.106-5.217v-.003zM43.913 5.924c-2.058 0-4.872.636-7.642 2.808-6.236 4.895-9.333 21.848 4.061 21.848 3.471 0 7.335-1.097 10.018-3.122l-2.436-4.094c-2.016 1.56-12.23 4.953-11.15-3.326h15.954c0-.018 2.035-6.637-.888-10.642-2.494-3.414-7.086-3.472-7.917-3.472M47.871 15h-9.77c.344-1.315 2.417-4.569 6.272-4.197C48.517 11.183 47.87 15 47.87 15"/></g></svg>