<svg xmlns="http://www.w3.org/2000/svg" width="31" height="52"><g fill="none" fill-rule="evenodd"><path d="M-16.2-5h64v64h-64z"/><path fill="#000" fill-rule="nonzero" d="M.822 25.99a1.583 1.583 0 0 1 0-.642c.103-.202.233-.389.385-.557L25.212.83c.156-.166.346-.297.556-.385a1.37 1.37 0 0 1 .6 0c.211-.04.43-.04.641 0 .21.088.4.22.556.385l2.568 2.525.385.556c.045.226.045.459 0 .685a1.37 1.37 0 0 1 0 .599 2.567 2.567 0 0 1-.385.556L10.022 25.99l20.24 20.196c.152.168.281.355.384.557l.129.641c.049.212.049.431 0 .642a2.567 2.567 0 0 1-.385.557l-2.568 2.567c-.143.19-.336.338-.556.428-.212.04-.43.04-.642 0a1.37 1.37 0 0 1-.599 0 1.326 1.326 0 0 1-.556-.428L1.464 27.188a2.567 2.567 0 0 1-.385-.557 1.498 1.498 0 0 1-.257-.641z"/></g></svg>