<svg xmlns="http://www.w3.org/2000/svg" width="31" height="52"><g fill="none" fill-rule="evenodd"><path d="M-16.4-5h64v64h-64z"/><path fill="#000" fill-rule="nonzero" d="M30.578 26.032c.044.212.044.43 0 .642a2.567 2.567 0 0 1-.385.557L6.188 51.193a1.626 1.626 0 0 1-.556.385 1.37 1.37 0 0 1-.6 0c-.211.04-.43.04-.641 0-.21-.088-.4-.22-.556-.385l-2.568-2.525-.385-.556a1.754 1.754 0 0 1 0-.685 1.37 1.37 0 0 1 0-.599c.103-.201.233-.388.385-.556l20.111-20.24L1.138 5.836a2.567 2.567 0 0 1-.384-.557l-.129-.641c-.049-.212-.049-.431 0-.642.104-.202.233-.389.385-.557L3.578.872c.143-.19.336-.338.556-.428.212-.04.43-.04.642 0a1.37 1.37 0 0 1 .599 0c.22.09.413.238.556.428l24.005 23.962c.153.168.282.355.385.557.135.19.223.41.257.641z"/></g></svg>