<svg xmlns="http://www.w3.org/2000/svg" width="52" height="30"><g fill="none" fill-rule="evenodd"><path d="M-6-16h64v64H-6z"/><path fill="#fff" fill-rule="nonzero" d="M26.021.033c.212-.044.43-.044.642 0 .202.103.389.233.557.385l23.962 24.005c.166.156.297.346.385.556a1.37 1.37 0 0 1 0 .6c.04.211.04.43 0 .641-.088.21-.22.4-.385.556l-2.525 2.568-.556.385a1.754 1.754 0 0 1-.685 0 1.37 1.37 0 0 1-.599 0 2.567 2.567 0 0 1-.556-.385L26.02 9.233 5.825 29.473a2.567 2.567 0 0 1-.557.384l-.641.129c-.212.049-.431.049-.642 0a2.567 2.567 0 0 1-.557-.385L.861 27.033a1.326 1.326 0 0 1-.428-.556c-.04-.212-.04-.43 0-.642a1.37 1.37 0 0 1 0-.599c.09-.22.238-.413.428-.556L24.823.675c.168-.153.355-.282.557-.385.19-.135.41-.223.641-.257z"/></g></svg>
