<svg xmlns="http://www.w3.org/2000/svg" width="52" height="30"><g fill="none" fill-rule="evenodd"><path d="M-5.8-16h64v64h-64z"/><path fill="#fff" fill-rule="nonzero" d="M26.179 29.99c-.212.043-.43.043-.642 0a2.567 2.567 0 0 1-.557-.386L1.018 5.599a1.626 1.626 0 0 1-.385-.556 1.37 1.37 0 0 1 0-.6c-.04-.211-.04-.43 0-.641.088-.21.22-.4.385-.556L3.543.678l.556-.385c.226-.045.459-.045.685 0a1.37 1.37 0 0 1 .599 0c.201.103.388.233.556.385L26.18 20.79 46.375.55c.168-.152.355-.281.557-.384l.641-.129c.212-.049.431-.049.642 0 .202.104.389.233.557.385l2.567 2.568c.19.143.338.336.428.556.04.212.04.43 0 .642a1.37 1.37 0 0 1 0 .599c-.09.22-.238.413-.428.556L27.377 29.347a2.567 2.567 0 0 1-.557.385c-.19.135-.41.223-.641.257Z"/></g></svg>
