<svg xmlns="http://www.w3.org/2000/svg" width="52" height="44"><g fill="none" fill-rule="evenodd"><path d="M-6-9h64v64H-6z"/><path fill="#000" fill-rule="nonzero" d="M50.235 11.217a4.431 4.431 0 0 1 1.352 3.54v23.478a5.122 5.122 0 0 1-5.007 5.006H5.407a4.805 4.805 0 0 1-3.51-1.496A4.834 4.834 0 0 1 .4 38.235V14.756a4.863 4.863 0 0 1 1.496-3.539 4.891 4.891 0 0 1 3.51-1.467H15.65V5.319C16.398 2.183 17.952.6 20.253.6h11.71c2.274 0 3.828 1.583 4.605 4.719v4.43h10.214a4.776 4.776 0 0 1 3.453 1.468zm-18.3-1.467V7.275c-.374-1.41-1.15-2.129-2.302-2.129h-7.107c-1.15 0-1.927.72-2.301 2.13V9.75h11.71z"/></g></svg>