<svg xmlns="http://www.w3.org/2000/svg" width="45" height="41"><g fill="none" fill-rule="evenodd"><path d="M-9.4-12h64v64h-64z"/><path fill="#000" fill-rule="nonzero" d="M43.575 2.507a6.07 6.07 0 0 1 1.422 4.015v28.23a6.038 6.038 0 0 1-1.422 4.079 4.236 4.236 0 0 1-3.351 1.707H5.006a4.268 4.268 0 0 1-3.414-1.707 6.323 6.323 0 0 1-1.39-4.078v-9.895c.048-1.8.38-3.582.98-5.28.54-1.66 1.351-3.22 2.402-4.615l8.03-10.053a11.318 11.318 0 0 1 3.698-2.877A9.484 9.484 0 0 1 19.675.8h20.549a4.236 4.236 0 0 1 3.35 1.707zM6.145 16.954l-.317.57-.379.537h36.482V8.577a11.539 11.539 0 0 0-.158-2.213 2.845 2.845 0 0 0-.822-1.612 3.161 3.161 0 0 0-1.613-.822 8.157 8.157 0 0 0-1.896-.222H21.224a10.338 10.338 0 0 0-4.015.917 8.662 8.662 0 0 0-3.383 2.845l-7.682 9.484zm35.754 7.05c.317-.294.5-.705.506-1.138a1.612 1.612 0 0 0-1.612-1.58h-6.86a1.644 1.644 0 0 0-1.138.442 1.517 1.517 0 0 0-.475 1.138c0 .89.722 1.612 1.613 1.612h6.86c.401.047.803-.08 1.106-.347v-.127z"/></g></svg>