<svg xmlns="http://www.w3.org/2000/svg" width="36" height="48"><g fill="none" fill-rule="evenodd"><path d="M-15.6-8h64v64h-64z"/><path fill="#000" fill-rule="nonzero" d="M27.708 10.273V48H.435V3.303A6.06 6.06 0 0 1 .435 2c.105-.41.314-.786.606-1.09A3.788 3.788 0 0 1 2.162.241 4 4 0 0 1 3.496 0h20.636a4 4 0 0 1 1.333.242c.41.156.79.382 1.122.667.306.33.57.697.788 1.091.207.404.32.85.333 1.303v6.97zm-5.849-4.88a1.152 1.152 0 0 0-.242-.332.727.727 0 0 0-.333-.243 1.424 1.424 0 0 0-.516 0H6.83a1.242 1.242 0 0 0-.485 0 1.09 1.09 0 0 0-.363.243.788.788 0 0 0-.334.333.636.636 0 0 0 0 .424v10.06a.788.788 0 0 0 0 .334c.048.14.131.266.243.364.103.104.227.187.363.242h15.061c.145-.055.279-.137.394-.242a2.03 2.03 0 0 0 .182-.364.788.788 0 0 0 0-.333V5.819a.636.636 0 0 0-.03-.425zm8.516 33.334a14.121 14.121 0 0 1-2.607 2.728v-5.546l1.849-3.515a20.485 20.485 0 0 0 1.727-4.546c.358-1.366.551-2.77.576-4.181v-1.122a14.545 14.545 0 0 0-.818-3.727 11.03 11.03 0 0 0-1.91-3.303c-.32.187-.654.349-1 .485-.302 0-.424.273-.424.424v-5.06l1.425-1.455.97.91a15.848 15.848 0 0 1 3.454 5.03 17.333 17.333 0 0 1 1.515 6.06c.016.262.016.526 0 .788v1a27.879 27.879 0 0 1-.697 6.06 19.576 19.576 0 0 1-2.151 5.516c-.697 1.394-1.273 2.545-1.91 3.485v-.03z"/></g></svg>