<svg xmlns="http://www.w3.org/2000/svg" width="49" height="52"><path d="M27.081.4v6.974l4.992-4.465 2.446 2.673-7.438 6.714v6.746l1.421.815 1.455.847 5.884-3.259 2.083-9.777 3.603.814-1.388 6.519 6.149-3.683 2.281 3.846-6.149 3.487 6.38 2.086-1.091 3.422-9.686-3.031-5.884 3.259v3.259l5.884 3.259 9.587-3.031 1.091 3.487-6.38 1.988 6.148 3.52-2.281 3.878-6.148-3.487 1.388 6.518-3.405.88-2.083-9.777-5.884-3.259-2.876 1.662v6.518l7.438 6.518-2.446 2.705-4.992-4.465v7.04h-4.661v-6.746l-4.992 4.465-2.446-2.705 7.438-6.519v-6.518l-1.421-.847-1.455-.815-5.818 3.259-2.149 9.777-3.603-.749 1.388-6.518-6.149 3.259-2.281-3.878 6.149-3.52L.8 31.557l1.091-3.487 9.686 3.03 5.884-3.259v-3.259l-5.884-3.454-9.587 3.031L.8 20.737l6.38-2.086-6.149-3.487 2.281-3.846 6.149 3.487-1.388-6.518 3.504-.75 2.083 9.778 5.884 3.259 1.454-.848 1.521-.684v-6.518l-7.438-6.942 2.446-2.673 4.992 4.465V.4z"/></svg>