<svg xmlns="http://www.w3.org/2000/svg" width="147" height="49"><g fill="none" fill-rule="evenodd"><path fill="#92A4FC" d="M113.257 45.288c.942.02 1.688.797 1.669 1.736-.02.939-.8 1.683-1.74 1.664l-80.952-1.7 80.952-1.7zm15.001-5.724a1.702 1.702 0 0 1 1.678 1.726 1.702 1.702 0 0 1-1.73 1.674l-110.993-1.7 110.993-1.7zM18.943 6.348l110.993 1.7-110.993 1.7h-.052a1.702 1.702 0 0 1-1.677-1.726 1.702 1.702 0 0 1 1.73-1.674zM33.963.624l80.953 1.7-80.952 1.7h-.072a1.703 1.703 0 0 1-1.668-1.736c.02-.939.8-1.683 1.74-1.664z"/><path fill="#394063" fill-rule="nonzero" d="m5.421 35.508 1.118-5.637h4.591c2.04 0 3.811-.34 5.312-1.022 1.5-.681 2.658-1.66 3.472-2.935.815-1.275 1.222-2.77 1.222-4.483 0-2.005-.702-3.568-2.104-4.687-1.403-1.12-3.39-1.68-5.96-1.68H4.744L.624 35.508h4.797zm5.915-9.492H7.304l1.442-7.097h3.738c1.236 0 2.182.244 2.84.73.657.487.985 1.217.985 2.19 0 1.344-.431 2.376-1.294 3.097-.864.72-2.09 1.08-3.679 1.08zm11.89 9.492 2.677-4.38h9.594l.97 4.38h4.768l-5.062-20.444h-4.708L18.134 35.508h5.091zm11.476-7.973H28.11l4.856-7.886 1.736 7.886zm13.478 7.973 1.148-5.724h4.06l3.238 5.724h5.032l-3.59-6.308c1.844-.565 3.286-1.529 4.326-2.892 1.04-1.363 1.56-2.998 1.56-4.906 0-2.006-.707-3.563-2.12-4.673-1.412-1.11-3.393-1.665-5.944-1.665h-8.387l-4.12 20.444h4.797zm5.945-9.492h-4.061l1.442-7.097h3.766c1.236 0 2.188.244 2.855.73.667.487 1 1.217 1 2.19 0 1.344-.436 2.376-1.31 3.097-.872.72-2.103 1.08-3.692 1.08zm19.628 9.492 3.355-16.589h6.563l.794-3.855H66.514l-.795 3.855h6.592l-3.325 16.589h4.767zm13.86 0 2.59-12.792 7.681 12.792h3.914l4.12-20.444h-4.708l-2.56 12.821-7.681-12.82h-3.944l-4.12 20.443h4.709zm35.02 0 .795-3.797h-11.242l.942-4.731h9.594l.735-3.68h-9.564l.883-4.44h10.8l.795-3.796h-15.568l-4.12 20.444h15.95zm8.593 0 1.148-5.724h4.061l3.237 5.724h5.033l-3.59-6.308c1.844-.565 3.286-1.529 4.325-2.892 1.04-1.363 1.56-2.998 1.56-4.906 0-2.006-.706-3.563-2.119-4.673-1.412-1.11-3.394-1.665-5.944-1.665h-8.387l-4.12 20.444h4.796zm5.945-9.492h-4.061l1.442-7.097h3.767c1.236 0 2.187.244 2.854.73.667.487 1 1.217 1 2.19 0 1.344-.436 2.376-1.309 3.097-.873.72-2.104 1.08-3.693 1.08z"/></g></svg>